<?xml version="1.0" encoding="UTF-8"?>
<!DOCTYPE svg PUBLIC "-//W3C//DTD SVG 1.1//EN" "http://www.w3.org/Graphics/SVG/1.1/DTD/svg11.dtd">
<svg xmlns="http://www.w3.org/2000/svg" version="1.1" width="600px" height="329px" style="shape-rendering:geometricPrecision; text-rendering:geometricPrecision; image-rendering:optimizeQuality; fill-rule:evenodd; clip-rule:evenodd" xmlns:xlink="http://www.w3.org/1999/xlink">
<g><path style="opacity:1" fill="#d6b07e" d="M 119.5,72.5 C 121.613,73.5482 123.28,75.0482 124.5,77C 123.27,80.7726 122.27,84.6059 121.5,88.5C 118.242,89.4173 114.909,89.7507 111.5,89.5C 111.265,88.9033 110.765,88.5699 110,88.5C 108.433,89.8561 106.6,90.5228 104.5,90.5C 106.518,84.7634 105.185,79.9301 100.5,76C 101.167,75.3333 101.833,74.6667 102.5,74C 106.804,74.2132 110.304,72.7132 113,69.5C 115.257,70.0899 116.924,71.4232 118,73.5C 118.383,72.944 118.883,72.6107 119.5,72.5 Z"/></g>
<g><path style="opacity:0.965" fill="#e3c9a7" d="M 102.5,86.5 C 103.148,88.4982 103.981,90.4982 105,92.5C 107.221,91.5941 109.388,90.5941 111.5,89.5C 114.909,89.7507 118.242,89.4173 121.5,88.5C 122.27,84.6059 123.27,80.7726 124.5,77C 123.28,75.0482 121.613,73.5482 119.5,72.5C 117.281,69.8779 115.614,66.8779 114.5,63.5C 113.998,62.479 113.332,62.3123 112.5,63C 110.959,65.9156 109.293,68.7489 107.5,71.5C 104.298,72.1272 101.131,72.7939 98,73.5C 99.1694,76.2151 100.669,78.8817 102.5,81.5C 92.6085,74.4738 93.9418,70.6405 106.5,70C 108.417,67.5015 110.084,64.8349 111.5,62C 112.944,61.2195 114.277,61.3861 115.5,62.5C 116.932,69.4964 121.265,72.6631 128.5,72C 129.428,72.3879 130.095,73.0546 130.5,74C 129.114,77.3912 126.948,80.2246 124,82.5C 123.741,84.9905 123.907,87.4905 124.5,90C 124.691,91.9729 124.024,93.4729 122.5,94.5C 119.374,93.0692 116.207,91.7358 113,90.5C 109.651,92.4402 106.151,93.6069 102.5,94C 101.351,91.5408 101.351,89.0408 102.5,86.5 Z"/></g>
<g><path style="opacity:0.827" fill="#eed3b3" d="M 150.5,83.5 C 150.44,84.0431 150.107,84.3764 149.5,84.5C 146.147,81.7752 142.48,81.1085 138.5,82.5C 136.829,85.8158 137.829,87.8158 141.5,88.5C 146.913,90.3735 151.913,93.0401 156.5,96.5C 149.761,93.9778 143.261,90.9778 137,87.5C 136.313,85.4325 136.48,83.4325 137.5,81.5C 142.263,79.9679 146.596,80.6345 150.5,83.5 Z"/></g>
<g><path style="opacity:0.455" fill="#e7cdac" d="M 84.5,91.5 C 84.33,90.1779 84.6634,89.0113 85.5,88C 83.1918,86.1335 80.5251,85.1335 77.5,85C 76.5,84 75.5,83 74.5,82C 75.6745,79.1712 74.6745,78.1712 71.5,79C 70.7109,81.3651 69.5442,83.5318 68,85.5C 67.5357,84.9056 67.369,84.2389 67.5,83.5C 68.6147,80.2481 70.448,77.5814 73,75.5C 75.5211,78.0322 77.6878,80.8655 79.5,84C 82.43,84.6063 85.2633,85.4396 88,86.5C 87.9232,88.7715 86.7565,90.4382 84.5,91.5 Z"/></g>
<g><path style="opacity:1" fill="#cfb38f" d="M 119.5,72.5 C 118.883,72.6107 118.383,72.944 118,73.5C 116.924,71.4232 115.257,70.0899 113,69.5C 110.304,72.7132 106.804,74.2132 102.5,74C 101.833,74.6667 101.167,75.3333 100.5,76C 105.185,79.9301 106.518,84.7634 104.5,90.5C 106.6,90.5228 108.433,89.8561 110,88.5C 110.765,88.5699 111.265,88.9033 111.5,89.5C 109.388,90.5941 107.221,91.5941 105,92.5C 103.981,90.4982 103.148,88.4982 102.5,86.5C 102.5,84.8333 102.5,83.1667 102.5,81.5C 100.669,78.8817 99.1694,76.2151 98,73.5C 101.131,72.7939 104.298,72.1272 107.5,71.5C 109.293,68.7489 110.959,65.9156 112.5,63C 113.332,62.3123 113.998,62.479 114.5,63.5C 115.614,66.8779 117.281,69.8779 119.5,72.5 Z"/></g>
<g><path style="opacity:0.702" fill="#fdfdfd" d="M 255.5,95.5 C 257.467,95.2606 259.301,95.5939 261,96.5C 261.5,107.495 261.667,118.495 261.5,129.5C 269.507,129.334 277.507,129.5 285.5,130C 286.554,131.388 286.72,132.888 286,134.5C 275.916,135.486 265.749,135.819 255.5,135.5C 255.5,122.167 255.5,108.833 255.5,95.5 Z"/></g>
<g><path style="opacity:0.686" fill="#fdfefe" d="M 304.5,95.5 C 306.144,95.2865 307.644,95.6198 309,96.5C 309.333,106.167 309.667,115.833 310,125.5C 312.183,129.241 315.516,130.907 320,130.5C 324.003,130.724 327.336,129.39 330,126.5C 330.333,116.5 330.667,106.5 331,96.5C 332.667,95.1667 334.333,95.1667 336,96.5C 336.667,106.833 336.667,117.167 336,127.5C 334.402,132.099 331.235,134.932 326.5,136C 320.295,136.984 314.295,136.317 308.5,134C 305.819,131.806 304.319,128.973 304,125.5C 303.193,115.423 303.36,105.423 304.5,95.5 Z"/></g>
<g><path style="opacity:0.637" fill="#fcfdfd" d="M 356.5,95.5 C 358.199,95.3398 359.866,95.5065 361.5,96C 365.726,100.969 370.059,105.802 374.5,110.5C 378.311,105.521 382.311,100.688 386.5,96C 388.441,95.2571 390.274,95.4238 392,96.5C 392.667,97.1667 392.667,97.8333 392,98.5C 386.929,103.735 382.429,109.401 378.5,115.5C 382.519,121.531 387.019,127.198 392,132.5C 392.483,133.448 392.649,134.448 392.5,135.5C 390.473,135.662 388.473,135.495 386.5,135C 381.973,130.108 377.807,124.941 374,119.5C 370.213,124.956 366.046,130.123 361.5,135C 359.272,135.82 357.272,135.487 355.5,134C 360.392,127.95 365.058,121.783 369.5,115.5C 365.21,109.105 360.543,102.938 355.5,97C 356.056,96.6174 356.389,96.1174 356.5,95.5 Z"/></g>
<g><path style="opacity:0.675" fill="#fdfefe" d="M 413.5,95.5 C 423.172,95.3335 432.839,95.5002 442.5,96C 444.525,97.194 444.859,98.694 443.5,100.5C 435.193,101.498 426.86,101.831 418.5,101.5C 418.5,104.833 418.5,108.167 418.5,111.5C 423.5,111.5 428.5,111.5 433.5,111.5C 433.5,113.167 433.5,114.833 433.5,116.5C 428.821,116.334 424.155,116.501 419.5,117C 418.536,121.066 418.203,125.233 418.5,129.5C 427.5,129.5 436.5,129.5 445.5,129.5C 445.739,131.467 445.406,133.301 444.5,135C 433.923,135.819 423.423,135.652 413,134.5C 412.204,121.455 412.371,108.455 413.5,95.5 Z"/></g>
<g><path style="opacity:1" fill="#d4b182" d="M 84.5,91.5 C 80.0061,92.1587 78.3395,94.8254 79.5,99.5C 69.7498,101.298 64.4164,97.2984 63.5,87.5C 65.1992,87.6602 66.8659,87.4935 68.5,87C 67.244,86.5831 66.5774,85.7498 66.5,84.5C 66.5,83.8333 66.8333,83.5 67.5,83.5C 67.369,84.2389 67.5357,84.9056 68,85.5C 69.5442,83.5318 70.7109,81.3651 71.5,79C 74.6745,78.1712 75.6745,79.1712 74.5,82C 75.5,83 76.5,84 77.5,85C 80.5251,85.1335 83.1918,86.1335 85.5,88C 84.6634,89.0113 84.33,90.1779 84.5,91.5 Z"/></g>
<g><path style="opacity:1" fill="#dbc19d" d="M 66.5,84.5 C 66.5774,85.7498 67.244,86.5831 68.5,87C 66.8659,87.4935 65.1992,87.6602 63.5,87.5C 64.4164,97.2984 69.7498,101.298 79.5,99.5C 78.3395,94.8254 80.0061,92.1587 84.5,91.5C 84.2172,92.2891 83.7172,92.9558 83,93.5C 82.7501,97.1383 82.5834,100.638 82.5,104C 79.1204,104.242 75.9537,103.408 73,101.5C 70.0416,103.233 66.8749,104.233 63.5,104.5C 64.9424,97.8974 63.1091,92.5641 58,88.5C 57.5172,87.552 57.3505,86.552 57.5,85.5C 60.5176,85.2962 63.5176,84.9629 66.5,84.5 Z"/></g>
<g><path style="opacity:0.447" fill="#e4c7a8" d="M 156.5,96.5 C 166.755,101.424 174.755,108.757 180.5,118.5C 176.003,114.836 172.003,110.669 168.5,106C 164.249,103.055 160.249,99.888 156.5,96.5 Z"/></g>
<g><path style="opacity:0.816" fill="#ebd0ad" d="M 42.5,100.5 C 43.552,100.351 44.552,100.517 45.5,101C 46.5853,103.172 47.9186,105.172 49.5,107C 51.764,107.236 53.9307,107.736 56,108.5C 56.6667,109.5 56.6667,110.5 56,111.5C 52.2194,114.036 51.0527,117.37 52.5,121.5C 52.523,123.067 52.023,124.4 51,125.5C 48.5664,124.368 46.0664,123.368 43.5,122.5C 41.3987,123.592 39.2321,124.592 37,125.5C 35.7556,122.362 35.089,119.028 35,115.5C 33.1217,113.957 31.6217,112.124 30.5,110C 33.092,107.938 36.092,106.605 39.5,106C 40.2228,103.982 41.2228,102.148 42.5,100.5 Z"/></g>
<g><path style="opacity:1" fill="#d1b188" d="M 42.5,102.5 C 43.675,102.281 44.675,102.614 45.5,103.5C 47.372,107.755 50.7054,109.921 55.5,110C 53.6667,111.167 52.1667,112.667 51,114.5C 50.8771,117.614 50.7104,120.614 50.5,123.5C 48.3932,122.363 46.2265,121.363 44,120.5C 41.5627,121.8 39.0627,122.8 36.5,123.5C 38.6597,117.973 37.3264,113.473 32.5,110C 34.7148,108.956 37.0481,108.29 39.5,108C 41.16,106.512 42.16,104.679 42.5,102.5 Z"/></g>
<g><path style="opacity:1" fill="#d1b288" d="M 191.5,139.5 C 188.107,132.381 184.44,125.381 180.5,118.5C 174.755,108.757 166.755,101.424 156.5,96.5C 151.913,93.0401 146.913,90.3735 141.5,88.5C 140.699,86.9582 140.366,85.2915 140.5,83.5C 146.488,84.5905 152.154,86.7571 157.5,90C 163.689,94.2597 169.689,98.7597 175.5,103.5C 176.809,105.976 178.642,107.976 181,109.5C 184.68,116.15 188.68,122.483 193,128.5C 193.212,131.252 194.045,133.752 195.5,136C 194.314,137.412 192.981,138.579 191.5,139.5 Z"/></g>
<g><path style="opacity:1" fill="#d4b792" d="M 101.5,112.5 C 104.817,122.266 108.65,131.932 113,141.5C 117.265,148.205 123.099,152.872 130.5,155.5C 130.631,156.239 130.464,156.906 130,157.5C 126.564,154.507 122.731,153.507 118.5,154.5C 116.862,155.705 116.529,157.038 117.5,158.5C 119.884,159.011 121.884,160.011 123.5,161.5C 121.814,163.016 119.981,164.35 118,165.5C 116.098,163.373 114.431,161.04 113,158.5C 111.569,161.04 109.902,163.373 108,165.5C 106.669,164.004 105.169,162.671 103.5,161.5C 103.167,161.833 102.833,162.167 102.5,162.5C 103.24,166.492 103.906,170.492 104.5,174.5C 104.565,174.938 104.399,175.272 104,175.5C 102.349,170.289 101.682,164.956 102,159.5C 102.414,159.957 102.914,160.291 103.5,160.5C 107.112,159.361 110.446,157.694 113.5,155.5C 114.452,153.955 114.785,152.288 114.5,150.5C 111.733,151.778 109.066,152.445 106.5,152.5C 107.237,150.695 108.237,149.029 109.5,147.5C 109.043,146.702 108.376,146.369 107.5,146.5C 106.858,142.867 104.858,140.534 101.5,139.5C 100.153,140.171 98.9862,140.171 98,139.5C 97.7398,141.618 96.7398,143.284 95,144.5C 93.9125,142.068 93.4125,142.402 93.5,145.5C 91.8333,145.5 90.1667,145.5 88.5,145.5C 88.281,144.325 88.6143,143.325 89.5,142.5C 92.5845,140.756 95.5845,138.922 98.5,137C 98.1667,136.667 97.8333,136.333 97.5,136C 99.5624,134.468 100.896,132.468 101.5,130C 100.906,129.536 100.239,129.369 99.5,129.5C 98.8971,124.525 97.3971,119.859 95,115.5C 84.7672,119.53 76.2672,125.864 69.5,134.5C 67.2988,134.142 65.9655,132.808 65.5,130.5C 68.1025,127.723 71.1025,125.556 74.5,124C 73.5,123.667 72.5,123.333 71.5,123C 78.9912,116.501 87.4912,111.668 97,108.5C 99.0067,109.344 100.507,110.677 101.5,112.5 Z"/></g>
<g><path style="opacity:0.29" fill="#f0d6b6" d="M 24.5,144.5 C 25.1614,145.718 25.8281,147.051 26.5,148.5C 29.5778,145.966 32.5778,145.966 35.5,148.5C 35.8374,144.693 37.1707,141.36 39.5,138.5C 37.9783,137.438 36.3117,136.771 34.5,136.5C 33.343,134.862 32.1764,133.196 31,131.5C 29.516,135.488 26.6826,137.154 22.5,136.5C 26.1299,135.721 28.7965,133.554 30.5,130C 31.1667,129.333 31.8333,129.333 32.5,130C 33.5,131.667 34.5,133.333 35.5,135C 38.0082,135.115 40.0082,136.115 41.5,138C 40.1667,140 38.8333,142 37.5,144C 38.2335,145.766 38.5668,147.599 38.5,149.5C 35.9621,149.493 33.4621,149.159 31,148.5C 29.1049,148.615 27.4382,149.282 26,150.5C 23.3881,148.963 22.8881,146.963 24.5,144.5 Z"/></g>
<g><path style="opacity:1" fill="#d6ba95" d="M 101.5,112.5 C 100.507,110.677 99.0067,109.344 97,108.5C 87.4912,111.668 78.9912,116.501 71.5,123C 72.5,123.333 73.5,123.667 74.5,124C 71.1025,125.556 68.1025,127.723 65.5,130.5C 65.9655,132.808 67.2988,134.142 69.5,134.5C 67.9676,137.057 66.3009,139.557 64.5,142C 78.0299,146.242 89.5299,143.076 99,132.5C 99.4828,131.552 99.6495,130.552 99.5,129.5C 100.239,129.369 100.906,129.536 101.5,130C 100.896,132.468 99.5624,134.468 97.5,136C 97.8333,136.333 98.1667,136.667 98.5,137C 95.5845,138.922 92.5845,140.756 89.5,142.5C 88.6143,143.325 88.281,144.325 88.5,145.5C 90.1667,145.5 91.8333,145.5 93.5,145.5C 93.4125,142.402 93.9125,142.068 95,144.5C 96.7398,143.284 97.7398,141.618 98,139.5C 98.9862,140.171 100.153,140.171 101.5,139.5C 98.5818,143.957 94.5818,146.957 89.5,148.5C 89.44,147.957 89.1067,147.624 88.5,147.5C 86.8849,148.154 85.2182,148.654 83.5,149C 74.657,149.17 65.9903,149.67 57.5,150.5C 54.0395,148.887 53.5395,146.554 56,143.5C 64.1796,123.691 78.6796,111.858 99.5,108C 101.037,109.11 101.703,110.61 101.5,112.5 Z"/></g>
<g><path style="opacity:1" fill="#d1b694" d="M 34.5,136.5 C 36.3117,136.771 37.9783,137.438 39.5,138.5C 37.1707,141.36 35.8374,144.693 35.5,148.5C 32.5778,145.966 29.5778,145.966 26.5,148.5C 25.8281,147.051 25.1614,145.718 24.5,144.5C 23.403,142.226 22.0696,140.059 20.5,138C 20.8361,136.97 21.5028,136.47 22.5,136.5C 26.6826,137.154 29.516,135.488 31,131.5C 32.1764,133.196 33.343,134.862 34.5,136.5 Z"/></g>
<g><path style="opacity:1" fill="#d8b07e" d="M 34.5,136.5 C 36.2569,143.342 33.9236,145.675 27.5,143.5C 26.0111,137.654 28.3444,135.321 34.5,136.5 Z"/></g>
<g><path style="opacity:0.699" fill="#fcdec0" d="M 89.5,148.5 C 83.6676,150.154 77.6676,151.154 71.5,151.5C 66.9757,151.46 62.309,151.126 57.5,150.5C 65.9903,149.67 74.657,149.17 83.5,149C 85.2182,148.654 86.8849,148.154 88.5,147.5C 89.1067,147.624 89.44,147.957 89.5,148.5 Z"/></g>
<g><path style="opacity:1" fill="#dbbf9b" d="M 164.5,150.5 C 157.156,156.188 150.156,162.355 143.5,169C 145.046,170.44 145.879,172.273 146,174.5C 146.914,172.336 148.081,170.336 149.5,168.5C 155.054,163.361 160.887,158.694 167,154.5C 168.22,157.211 169.053,160.044 169.5,163C 169.316,164.376 168.649,165.209 167.5,165.5C 167.813,162.753 167.48,160.086 166.5,157.5C 158.955,161.21 152.788,166.543 148,173.5C 146.267,177.326 145.101,181.326 144.5,185.5C 144.848,187.697 145.848,189.53 147.5,191C 150.663,193.416 153.996,195.582 157.5,197.5C 159.422,195.313 161.088,192.98 162.5,190.5C 162.238,193.697 160.738,196.697 158,199.5C 153.289,197.58 149.122,194.914 145.5,191.5C 144.028,188.851 143.028,186.018 142.5,183C 140.824,183.434 139.157,184.268 137.5,185.5C 134.471,184.16 131.471,182.827 128.5,181.5C 127.916,178.527 127.249,175.527 126.5,172.5C 125.618,173.76 124.618,174.926 123.5,176C 118.275,176.763 113.108,177.597 108,178.5C 106.915,177.264 106.082,175.931 105.5,174.5C 111.19,177.101 116.69,176.767 122,173.5C 122.642,169.509 123.142,165.509 123.5,161.5C 125.085,163.831 126.251,166.497 127,169.5C 129.041,165.916 131.208,162.416 133.5,159C 132.695,157.887 132.028,156.721 131.5,155.5C 133.144,153.519 134.81,151.519 136.5,149.5C 130.263,146.1 125.096,141.433 121,135.5C 116.187,126.246 113.354,116.579 112.5,106.5C 134.549,105.441 151.716,114.108 164,132.5C 164.667,134.167 164.667,135.833 164,137.5C 152.768,144.731 142.768,153.398 134,163.5C 131.403,168.219 129.57,173.219 128.5,178.5C 131.274,181.22 134.607,182.887 138.5,183.5C 139.045,176.081 141.545,169.414 146,163.5C 151.788,158.533 157.954,154.199 164.5,150.5 Z M 132.5,138.5 C 127.864,133.555 124.531,127.889 122.5,121.5C 122.244,119.063 121.577,116.729 120.5,114.5C 125.636,113.859 130.636,114.692 135.5,117C 143.708,121.211 150.708,126.878 156.5,134C 152.696,137.983 148.196,140.816 143,142.5C 139.185,141.836 135.685,140.503 132.5,138.5 Z"/></g>
<g><path style="opacity:1" fill="#d2b48f" d="M 122.5,121.5 C 124.531,127.889 127.864,133.555 132.5,138.5C 136.292,141.568 140.292,144.402 144.5,147C 144.042,149.831 142.708,152.164 140.5,154C 139.056,154.781 137.723,154.614 136.5,153.5C 139.572,149.516 138.572,146.85 133.5,145.5C 132.749,144.624 132.249,143.624 132,142.5C 131.282,143.451 130.449,143.617 129.5,143C 127.333,140.5 125.167,138 123,135.5C 122.383,134.551 122.549,133.718 123.5,133C 122.069,132.535 120.903,131.701 120,130.5C 119.333,127.167 118.667,123.833 118,120.5C 115.842,117.494 114.342,114.161 113.5,110.5C 116.167,107.833 118.833,107.833 121.5,110.5C 120.456,111.623 119.79,112.956 119.5,114.5C 119.982,117.745 120.982,120.079 122.5,121.5 Z"/></g>
<g><path style="opacity:0.173" fill="#ebd1ab" d="M 107.5,146.5 C 108.376,146.369 109.043,146.702 109.5,147.5C 108.237,149.029 107.237,150.695 106.5,152.5C 101.381,155.223 96.048,157.723 90.5,160C 80.9392,162.023 71.2726,162.857 61.5,162.5C 58.1897,162.661 55.1897,162.661 52.5,162.5C 52.9175,161.778 53.5842,161.278 54.5,161C 66.2146,160.888 77.8813,160.221 89.5,159C 94.9448,157.112 99.9448,154.445 104.5,151C 106.141,149.871 107.141,148.371 107.5,146.5 Z"/></g>
<g><path style="opacity:1" fill="#d1b286" d="M 104.5,174.5 C 104.833,174.5 105.167,174.5 105.5,174.5C 106.082,175.931 106.915,177.264 108,178.5C 113.108,177.597 118.275,176.763 123.5,176C 124.618,174.926 125.618,173.76 126.5,172.5C 127.249,175.527 127.916,178.527 128.5,181.5C 127.601,182.472 126.434,183.138 125,183.5C 118.68,182.252 112.514,182.252 106.5,183.5C 105.508,183.328 104.842,183.662 104.5,184.5C 103.25,184.577 102.417,185.244 102,186.5C 99.9554,182.097 98.9554,177.43 99,172.5C 97.6231,169.982 96.1231,168.316 94.5,167.5C 93.5,166.833 92.5,166.167 91.5,165.5C 85.8916,164.026 81.7249,166.026 79,171.5C 78.2917,170.619 77.4584,169.953 76.5,169.5C 76.4257,167.589 75.4257,166.422 73.5,166C 70.1667,165.667 66.8333,165.333 63.5,165C 62.6195,164.292 61.9528,163.458 61.5,162.5C 71.2726,162.857 80.9392,162.023 90.5,160C 96.048,157.723 101.381,155.223 106.5,152.5C 109.066,152.445 111.733,151.778 114.5,150.5C 114.785,152.288 114.452,153.955 113.5,155.5C 110.446,157.694 107.112,159.361 103.5,160.5C 102.914,160.291 102.414,159.957 102,159.5C 101.682,164.956 102.349,170.289 104,175.5C 104.399,175.272 104.565,174.938 104.5,174.5 Z"/></g>
<g><path style="opacity:1" fill="#d1b382" d="M 130.5,155.5 C 130.833,155.5 131.167,155.5 131.5,155.5C 132.028,156.721 132.695,157.887 133.5,159C 131.208,162.416 129.041,165.916 127,169.5C 126.251,166.497 125.085,163.831 123.5,161.5C 121.884,160.011 119.884,159.011 117.5,158.5C 116.529,157.038 116.862,155.705 118.5,154.5C 122.731,153.507 126.564,154.507 130,157.5C 130.464,156.906 130.631,156.239 130.5,155.5 Z"/></g>
<g><path style="opacity:1" fill="#ddc09f" d="M 24.5,159.5 C 27.2972,161.601 30.4639,163.267 34,164.5C 33.2312,167.899 32.3979,171.399 31.5,175C 29.7445,175.14 28.0778,174.64 26.5,173.5C 24.9222,174.64 23.2555,175.14 21.5,175C 20.656,171.077 19.656,167.243 18.5,163.5C 21.8784,164.109 23.8784,162.776 24.5,159.5 Z"/></g>
<g><path style="opacity:1" fill="#d2b692" d="M 152.5,202.5 C 143.541,193.516 132.874,187.349 120.5,184C 115.845,183.501 111.179,183.334 106.5,183.5C 112.514,182.252 118.68,182.252 125,183.5C 126.434,183.138 127.601,182.472 128.5,181.5C 131.471,182.827 134.471,184.16 137.5,185.5C 139.157,184.268 140.824,183.434 142.5,183C 143.028,186.018 144.028,188.851 145.5,191.5C 149.122,194.914 153.289,197.58 158,199.5C 160.738,196.697 162.238,193.697 162.5,190.5C 166.339,182.637 168.006,174.303 167.5,165.5C 168.649,165.209 169.316,164.376 169.5,163C 169.053,160.044 168.22,157.211 167,154.5C 160.887,158.694 155.054,163.361 149.5,168.5C 148.081,170.336 146.914,172.336 146,174.5C 145.879,172.273 145.046,170.44 143.5,169C 150.156,162.355 157.156,156.188 164.5,150.5C 167.821,146.213 170.655,146.546 173,151.5C 177.737,171.832 173.57,189.999 160.5,206C 156.984,206.741 154.317,205.575 152.5,202.5 Z"/></g>
<g><path style="opacity:0.64" fill="#fcfdfd" d="M 549.5,179.5 C 557.787,179.317 565.12,181.817 571.5,187C 570.902,189.048 569.569,190.215 567.5,190.5C 560.965,186.28 553.965,185.113 546.5,187C 542.341,190.199 542.675,192.865 547.5,195C 554.689,195.537 561.689,196.87 568.5,199C 576.836,209.49 574.502,216.823 561.5,221C 551.613,222.53 542.947,220.03 535.5,213.5C 536.5,212.167 537.5,210.833 538.5,209.5C 546.649,215.303 555.316,216.469 564.5,213C 568.663,209.171 568.329,205.837 563.5,203C 557.152,202.065 550.818,201.065 544.5,200C 537.608,197.193 535.775,192.36 539,185.5C 542.069,182.554 545.569,180.554 549.5,179.5 Z"/></g>
<g><path style="opacity:1" fill="#d4b795" d="M 52.5,162.5 C 55.1897,162.661 58.1897,162.661 61.5,162.5C 61.9528,163.458 62.6195,164.292 63.5,165C 66.8333,165.333 70.1667,165.667 73.5,166C 75.4257,166.422 76.4257,167.589 76.5,169.5C 77.4584,169.953 78.2917,170.619 79,171.5C 81.7249,166.026 85.8916,164.026 91.5,165.5C 88.8018,166.143 86.1351,166.976 83.5,168C 86.4765,173.433 88.1432,179.266 88.5,185.5C 87.2567,194.397 85.09,203.063 82,211.5C 80.2307,217.198 77.064,218.031 72.5,214C 57.2302,200.002 50.5635,182.836 52.5,162.5 Z M 76.5,169.5 C 83.154,181.639 82.8207,193.639 75.5,205.5C 65.6639,196.37 59.9973,185.036 58.5,171.5C 58.5698,170.228 58.9032,169.062 59.5,168C 65.3505,167.052 71.0172,167.552 76.5,169.5 Z"/></g>
<g><path style="opacity:0.663" fill="#fcfdfd" d="M 256.5,180.5 C 259.238,179.965 261.072,180.965 262,183.5C 264.469,191.906 267.135,200.239 270,208.5C 273.373,199.381 276.54,190.214 279.5,181C 281.701,180.175 283.534,180.675 285,182.5C 287.736,190.876 290.57,199.209 293.5,207.5C 296.376,198.743 299.543,190.077 303,181.5C 304.356,180.62 305.856,180.286 307.5,180.5C 304.787,193.475 300.954,206.141 296,218.5C 294.333,221.167 292.667,221.167 291,218.5C 287.996,209.489 284.996,200.489 282,191.5C 278.616,200.319 275.616,209.319 273,218.5C 271,221.167 269,221.167 267,218.5C 263.266,206.464 259.432,194.464 255.5,182.5C 255.863,181.817 256.196,181.15 256.5,180.5 Z"/></g>
<g><path style="opacity:0.706" fill="#fdfdfd" d="M 327.5,180.5 C 329.144,180.286 330.644,180.62 332,181.5C 332.499,186.155 332.666,190.821 332.5,195.5C 339.5,195.5 346.5,195.5 353.5,195.5C 353.334,190.821 353.501,186.155 354,181.5C 355.699,180.594 357.533,180.261 359.5,180.5C 359.5,193.833 359.5,207.167 359.5,220.5C 357.533,220.739 355.699,220.406 354,219.5C 353.501,213.509 353.334,207.509 353.5,201.5C 346.5,201.5 339.5,201.5 332.5,201.5C 332.666,207.509 332.499,213.509 332,219.5C 330.333,220.833 328.667,220.833 327,219.5C 326.187,206.425 326.354,193.425 327.5,180.5 Z"/></g>
<g><path style="opacity:0.678" fill="#fdfefe" d="M 385.5,180.5 C 395.416,180.181 405.25,180.514 415,181.5C 415.72,183.112 415.554,184.612 414.5,186C 406.507,186.5 398.507,186.666 390.5,186.5C 390.5,189.833 390.5,193.167 390.5,196.5C 395.5,196.5 400.5,196.5 405.5,196.5C 405.5,198.167 405.5,199.833 405.5,201.5C 400.547,202.329 395.547,202.663 390.5,202.5C 390.5,206.5 390.5,210.5 390.5,214.5C 399.167,214.5 407.833,214.5 416.5,214.5C 416.5,216.5 416.5,218.5 416.5,220.5C 405.833,220.5 395.167,220.5 384.5,220.5C 384.186,207.087 384.519,193.754 385.5,180.5 Z"/></g>
<g><path style="opacity:0.685" fill="#fdfefe" d="M 437.5,180.5 C 447.749,180.181 457.916,180.514 468,181.5C 468.72,183.112 468.554,184.612 467.5,186C 459.479,186.168 451.479,186.668 443.5,187.5C 442.934,190.417 442.934,193.417 443.5,196.5C 448.179,196.334 452.845,196.501 457.5,197C 458.991,199.022 458.658,200.688 456.5,202C 452.179,202.499 447.846,202.666 443.5,202.5C 443.5,206.5 443.5,210.5 443.5,214.5C 452.192,214.169 460.859,214.502 469.5,215.5C 470.859,217.306 470.525,218.806 468.5,220C 458.151,220.832 447.817,220.666 437.5,219.5C 436.666,206.583 436.666,193.583 437.5,180.5 Z"/></g>
<g><path style="opacity:0.641" fill="#fdfefe" d="M 490.5,180.5 C 492.766,180.141 494.599,180.808 496,182.5C 496.615,192.912 496.615,203.245 496,213.5C 503.754,214.317 511.588,214.817 519.5,215C 520.833,216.667 520.833,218.333 519.5,220C 509.589,220.818 499.756,220.651 490,219.5C 489.187,206.425 489.354,193.425 490.5,180.5 Z"/></g>
<g><path style="opacity:0.775" fill="#edceaf" d="M 106.5,183.5 C 111.179,183.334 115.845,183.501 120.5,184C 132.874,187.349 143.541,193.516 152.5,202.5C 146.459,199.305 140.792,195.472 135.5,191C 126.116,186.041 116.116,184.208 105.5,185.5C 104.54,188.902 104.54,192.235 105.5,195.5C 104.235,194.486 103.569,192.986 103.5,191C 103.653,188.784 103.986,186.617 104.5,184.5C 104.842,183.662 105.508,183.328 106.5,183.5 Z"/></g>
<g><path style="opacity:1" fill="#d1b492" d="M 150.5,83.5 C 177.392,96.4015 194.392,117.402 201.5,146.5C 200.861,147.097 200.528,147.93 200.5,149C 204.207,167.461 202.374,184.961 195,201.5C 194.333,198.833 193.667,198.833 193,201.5C 192.901,195.781 194.067,190.281 196.5,185C 196.486,183.615 196.152,182.449 195.5,181.5C 197.455,167.183 196.121,153.183 191.5,139.5C 192.981,138.579 194.314,137.412 195.5,136C 194.045,133.752 193.212,131.252 193,128.5C 188.68,122.483 184.68,116.15 181,109.5C 178.642,107.976 176.809,105.976 175.5,103.5C 169.689,98.7597 163.689,94.2597 157.5,90C 152.154,86.7571 146.488,84.5905 140.5,83.5C 140.366,85.2915 140.699,86.9582 141.5,88.5C 137.829,87.8158 136.829,85.8158 138.5,82.5C 142.48,81.1085 146.147,81.7752 149.5,84.5C 150.107,84.3764 150.44,84.0431 150.5,83.5 Z"/></g>
<g><path style="opacity:0.216" fill="#ecd0b1" d="M 143.5,209.5 C 136.817,205.525 130.483,201.692 124.5,198C 118.593,196.639 112.593,196.139 106.5,196.5C 106.5,196.167 106.5,195.833 106.5,195.5C 121.282,193.726 133.616,198.392 143.5,209.5 Z"/></g>
<g><path style="opacity:1" fill="#dac0a0" d="M 201.5,146.5 C 206.559,170.108 202.893,192.108 190.5,212.5C 187.673,208.654 188.339,206.321 192.5,205.5C 191.846,203.885 191.346,202.218 191,200.5C 186.693,209.631 181.526,218.131 175.5,226C 172.935,228.08 170.268,229.913 167.5,231.5C 182.009,217.823 191.343,201.156 195.5,181.5C 196.152,182.449 196.486,183.615 196.5,185C 194.067,190.281 192.901,195.781 193,201.5C 193.667,198.833 194.333,198.833 195,201.5C 202.374,184.961 204.207,167.461 200.5,149C 200.528,147.93 200.861,147.097 201.5,146.5 Z"/></g>
<g><path style="opacity:1" fill="#d7ba96" d="M 104.5,184.5 C 103.986,186.617 103.653,188.784 103.5,191C 103.569,192.986 104.235,194.486 105.5,195.5C 105.833,195.5 106.167,195.5 106.5,195.5C 106.5,195.833 106.5,196.167 106.5,196.5C 104.915,197.474 103.915,198.974 103.5,201C 112.328,199.287 120.661,200.62 128.5,205C 129.381,205.708 130.047,206.542 130.5,207.5C 121.735,201.713 112.402,200.546 102.5,204C 99.7944,208.993 98.4611,214.16 98.5,219.5C 97.7611,219.369 97.0944,219.536 96.5,220C 97.7375,220.232 98.7375,220.732 99.5,221.5C 98.4107,223.117 96.744,223.95 94.5,224C 97.5722,224.578 100.239,225.745 102.5,227.5C 98.0424,227.07 93.8757,225.736 90,223.5C 89.8333,222.667 89.6667,221.833 89.5,221C 92.7224,211.277 95.5557,201.443 98,191.5C 98.8407,183.204 97.674,175.204 94.5,167.5C 96.1231,168.316 97.6231,169.982 99,172.5C 98.9554,177.43 99.9554,182.097 102,186.5C 102.417,185.244 103.25,184.577 104.5,184.5 Z"/></g>
<g><path style="opacity:1" fill="#cfb390" d="M 106.5,196.5 C 112.593,196.139 118.593,196.639 124.5,198C 130.483,201.692 136.817,205.525 143.5,209.5C 144.687,211.198 145.687,213.032 146.5,215C 146.415,216.107 146.081,217.107 145.5,218C 137.476,222.786 128.81,225.786 119.5,227C 120.056,227.383 120.389,227.883 120.5,228.5C 114.409,228.789 108.409,228.455 102.5,227.5C 100.239,225.745 97.5722,224.578 94.5,224C 96.744,223.95 98.4107,223.117 99.5,221.5C 111.036,223.359 122.369,222.526 133.5,219C 135.544,218.502 136.878,217.335 137.5,215.5C 138.525,215.103 138.692,214.437 138,213.5C 135.156,211.841 132.656,209.841 130.5,207.5C 130.047,206.542 129.381,205.708 128.5,205C 120.661,200.62 112.328,199.287 103.5,201C 103.915,198.974 104.915,197.474 106.5,196.5 Z"/></g>
<g><path style="opacity:0.417" fill="#edd5b3" d="M 137.5,215.5 C 136.878,217.335 135.544,218.502 133.5,219C 122.369,222.526 111.036,223.359 99.5,221.5C 98.7375,220.732 97.7375,220.232 96.5,220C 97.0944,219.536 97.7611,219.369 98.5,219.5C 112.03,223.034 125.03,221.701 137.5,215.5 Z"/></g>
<g><path style="opacity:0.261" fill="#e3cbab" d="M 143.5,209.5 C 149.939,212.146 150.605,215.646 145.5,220C 137.663,224.335 129.329,227.168 120.5,228.5C 120.389,227.883 120.056,227.383 119.5,227C 128.81,225.786 137.476,222.786 145.5,218C 146.081,217.107 146.415,216.107 146.5,215C 145.687,213.032 144.687,211.198 143.5,209.5 Z"/></g>
<g><path style="opacity:1" fill="#cdb598" d="M 190.5,212.5 C 184.287,224.049 175.62,233.382 164.5,240.5C 164.44,239.957 164.107,239.624 163.5,239.5C 161.593,241.76 159.593,241.927 157.5,240C 160.983,238.012 163.983,235.512 166.5,232.5C 166.5,231.833 166.833,231.5 167.5,231.5C 170.268,229.913 172.935,228.08 175.5,226C 181.526,218.131 186.693,209.631 191,200.5C 191.346,202.218 191.846,203.885 192.5,205.5C 188.339,206.321 187.673,208.654 190.5,212.5 Z"/></g>
<g><path style="opacity:0.596" fill="#d3c7b8" d="M 76.5,243.5 C 76.44,244.043 76.1067,244.376 75.5,244.5C 71.7812,242.281 67.9479,240.281 64,238.5C 63.2352,238.57 62.7352,238.903 62.5,239.5C 60.3875,238.56 58.3875,237.394 56.5,236C 42.916,223.01 33.2493,207.51 27.5,189.5C 27.8333,188.5 28.5,187.833 29.5,187.5C 37.1828,212.851 52.8495,231.518 76.5,243.5 Z"/></g>
<g><path style="opacity:0.987" fill="#cdb8a4" d="M 166.5,232.5 C 163.983,235.512 160.983,238.012 157.5,240C 159.593,241.927 161.593,241.76 163.5,239.5C 164.107,239.624 164.44,239.957 164.5,240.5C 135.463,259.277 105.129,261.444 73.5,247C 69.6553,244.637 65.9887,242.137 62.5,239.5C 62.7352,238.903 63.2352,238.57 64,238.5C 67.9479,240.281 71.7812,242.281 75.5,244.5C 76.1067,244.376 76.44,244.043 76.5,243.5C 77.7095,243.932 78.7095,244.599 79.5,245.5C 85.5763,249.136 92.243,251.302 99.5,252C 117.305,254.266 134.305,251.6 150.5,244C 151.738,243.31 151.738,242.81 150.5,242.5C 155.825,239.17 161.159,235.836 166.5,232.5 Z"/></g>
<g><path style="opacity:0.304" fill="#dfcab6" d="M 150.5,242.5 C 151.738,242.81 151.738,243.31 150.5,244C 134.305,251.6 117.305,254.266 99.5,252C 92.243,251.302 85.5763,249.136 79.5,245.5C 103.603,254.204 127.27,253.204 150.5,242.5 Z"/></g>
</svg>
