<?xml version="1.0" encoding="UTF-8"?>
<!DOCTYPE svg PUBLIC "-//W3C//DTD SVG 1.1//EN" "http://www.w3.org/Graphics/SVG/1.1/DTD/svg11.dtd">
<svg xmlns="http://www.w3.org/2000/svg" version="1.1" width="290px" height="159px" style="shape-rendering:geometricPrecision; text-rendering:geometricPrecision; image-rendering:optimizeQuality; fill-rule:evenodd; clip-rule:evenodd" xmlns:xlink="http://www.w3.org/1999/xlink">
<g><path style="opacity:0.886" fill="#d2b288" d="M 53.5,29.5 C 55.5638,29.7619 56.8971,30.9286 57.5,33C 59.0249,34.0086 60.6916,34.5086 62.5,34.5C 62.2009,36.973 61.2009,39.1397 59.5,41C 60.1476,42.4397 60.4809,43.9397 60.5,45.5C 58.323,45.4139 56.323,44.7472 54.5,43.5C 52.677,44.7472 50.677,45.4139 48.5,45.5C 48.5191,43.9397 48.8524,42.4397 49.5,41C 48.3746,39.0374 47.0413,37.204 45.5,35.5C 49.3492,34.9248 52.0158,32.9248 53.5,29.5 Z"/></g>
<g><path style="opacity:0.861" fill="#d1b289" d="M 33.5,36.5 C 35.5901,36.4501 36.9234,37.4501 37.5,39.5C 39.0453,40.4519 40.712,40.7852 42.5,40.5C 42.2009,42.973 41.2009,45.1397 39.5,47C 40.1519,51.2328 38.6519,51.7328 35,48.5C 33.6626,49.7649 32.1626,50.2649 30.5,50C 30.4874,46.7085 29.4874,43.5418 27.5,40.5C 30.8876,41.0306 32.8876,39.6973 33.5,36.5 Z"/></g>
<g><path style="opacity:0.76" fill="#d2b289" d="M 66.5,38.5 C 84.5818,43.7549 95.0818,55.7549 98,74.5C 99.4568,100.427 87.6235,116.594 62.5,123C 40.5805,125.731 24.7471,117.231 15,97.5C 13.8495,95.2462 13.5162,92.9129 14,90.5C 24.4076,116.121 42.9076,125.287 69.5,118C 90.2145,107.07 97.7145,90.2365 92,67.5C 86.912,55.4114 78.2453,47.0781 66,42.5C 65.4209,41.0715 65.5876,39.7382 66.5,38.5 Z M 50.5,97.5 C 56.6762,96.7765 61.6762,98.7765 65.5,103.5C 60.5251,106.234 55.1918,107.067 49.5,106C 48.572,105.612 47.9054,104.945 47.5,104C 48.0304,101.557 49.0304,99.3901 50.5,97.5 Z"/></g>
<g><path style="opacity:0.594" fill="#000000" d="M 172.5,45.5 C 175.744,47.0713 178.411,49.4046 180.5,52.5C 182.288,50.2092 184.288,48.0425 186.5,46C 187.635,45.2506 188.635,45.4173 189.5,46.5C 187.465,49.5243 185.465,52.5243 183.5,55.5C 185.465,58.4757 187.465,61.4757 189.5,64.5C 188.635,65.5827 187.635,65.7494 186.5,65C 184.288,62.9575 182.288,60.7908 180.5,58.5C 178.684,60.8169 176.684,62.9835 174.5,65C 173.365,65.7494 172.365,65.5827 171.5,64.5C 173.592,61.319 175.925,58.319 178.5,55.5C 176.047,52.7587 173.714,49.9254 171.5,47C 172.056,46.6174 172.389,46.1174 172.5,45.5 Z"/></g>
<g><path style="opacity:0.591" fill="#010100" d="M 134.5,62.5 C 135.959,62.4326 137.292,62.7659 138.5,63.5C 138.389,64.1174 138.056,64.6174 137.5,65C 132.581,65.8015 127.748,65.6349 123,64.5C 122.501,58.5092 122.334,52.5092 122.5,46.5C 123.833,46.5 125.167,46.5 126.5,46.5C 126.5,51.8333 126.5,57.1667 126.5,62.5C 129.167,62.5 131.833,62.5 134.5,62.5 Z"/></g>
<g><path style="opacity:0.677" fill="#000000" d="M 146.5,46.5 C 147.5,46.5 148.5,46.5 149.5,46.5C 149.334,51.1785 149.501,55.8452 150,60.5C 153,63.1667 156,63.1667 159,60.5C 159.499,55.8452 159.666,51.1785 159.5,46.5C 160.5,46.5 161.5,46.5 162.5,46.5C 162.666,51.8437 162.499,57.1771 162,62.5C 160.137,64.949 157.637,65.949 154.5,65.5C 151.363,65.949 148.863,64.949 147,62.5C 146.501,57.1771 146.334,51.8437 146.5,46.5 Z"/></g>
<g><path style="opacity:0.722" fill="#000000" d="M 199.5,46.5 C 204.544,46.1725 209.544,46.5059 214.5,47.5C 210.555,48.4909 206.555,48.8242 202.5,48.5C 202.5,50.1667 202.5,51.8333 202.5,53.5C 204.833,53.5 207.167,53.5 209.5,53.5C 209.5,54.5 209.5,55.5 209.5,56.5C 207.167,56.5 204.833,56.5 202.5,56.5C 202.5,58.5 202.5,60.5 202.5,62.5C 206.833,62.5 211.167,62.5 215.5,62.5C 215.5,63.5 215.5,64.5 215.5,65.5C 210.167,65.5 204.833,65.5 199.5,65.5C 199.5,59.1667 199.5,52.8333 199.5,46.5 Z"/></g>
<g><path style="opacity:0.807" fill="#d3b189" d="M 19.5,48.5 C 21.9897,50.1201 24.6563,51.6201 27.5,53C 26.1919,55.3549 25.1919,57.8549 24.5,60.5C 23.2519,59.9598 22.0852,59.2931 21,58.5C 19.9148,59.2931 18.7481,59.9598 17.5,60.5C 16.7479,57.7371 15.7479,55.0704 14.5,52.5C 15.7287,51.7189 17.062,51.2189 18.5,51C 19.2524,50.3292 19.5858,49.4959 19.5,48.5 Z"/></g>
<g><path style="opacity:0.809" fill="#d2b289" d="M 54.5,50.5 C 65.6386,50.7288 73.972,55.5622 79.5,65C 74.6319,69.3705 69.7986,73.8705 65,78.5C 63.4868,81.0239 62.8201,83.6906 63,86.5C 64,87.1667 65,87.8333 66,88.5C 68.1,79.8973 73.2667,73.8973 81.5,70.5C 83.0691,71.714 83.9024,73.3807 84,75.5C 85.0557,82.946 83.7223,89.946 80,96.5C 79.2545,97.9904 78.0879,98.9904 76.5,99.5C 71.7049,96.9332 67.0382,94.0998 62.5,91C 58.6049,89.7338 54.6049,89.2338 50.5,89.5C 50.5,90.8333 50.5,92.1667 50.5,93.5C 55.0462,93.2681 59.3795,94.1015 63.5,96C 65.9112,97.9555 68.4112,99.7888 71,101.5C 71.6667,102.833 71.6667,104.167 71,105.5C 61.9731,110.819 52.4731,111.819 42.5,108.5C 44.2402,102.374 45.9068,96.2076 47.5,90C 46.6394,86.8632 45.9728,83.6965 45.5,80.5C 41.2519,79.8996 40.0852,81.233 42,84.5C 43.0352,91.1401 42.0352,97.4734 39,103.5C 38.4387,104.022 37.772,104.355 37,104.5C 28.0068,97.8414 23.8401,88.8414 24.5,77.5C 32.023,78.073 39.3563,77.2396 46.5,75C 48.5852,73.9586 50.2519,72.4586 51.5,70.5C 51.0814,69.3279 50.4147,68.3279 49.5,67.5C 47.5065,69.4986 45.1732,70.9986 42.5,72C 37.1771,72.4994 31.8437,72.666 26.5,72.5C 29.0004,61.6633 35.6671,54.6633 46.5,51.5C 47.4419,51.6082 48.2753,51.9415 49,52.5C 50.3524,61.0405 54.1857,68.2072 60.5,74C 62.6614,74.7216 64.328,74.0549 65.5,72C 57.5385,66.9035 53.8718,59.7368 54.5,50.5 Z M 58.5,54.5 C 64.644,55.8219 69.8107,58.8219 74,63.5C 74.6667,64.1667 74.6667,64.8333 74,65.5C 67.701,69.3792 63.0343,67.7126 60,60.5C 59.187,58.5643 58.687,56.5643 58.5,54.5 Z M 42.5,56.5 C 43.8333,56.5 45.1667,56.5 46.5,56.5C 49.0596,62.2532 47.3929,66.0866 41.5,68C 38.1783,69.3924 34.8449,69.5591 31.5,68.5C 34.5083,63.828 38.175,59.828 42.5,56.5 Z M 78.5,76.5 C 81.5783,82.9286 80.5783,88.9286 75.5,94.5C 72.6983,93.5312 70.6983,91.6979 69.5,89C 70.9311,83.6131 73.9311,79.4465 78.5,76.5 Z M 53.5,77.5 C 54.7564,77.9038 55.9231,78.5705 57,79.5C 57.772,79.3552 58.4387,79.0219 59,78.5C 59.1429,84.2889 56.4762,85.9556 51,83.5C 50.5983,82.1279 50.0983,80.7946 49.5,79.5C 50.0656,78.7087 50.899,78.7087 52,79.5C 53.0299,79.1639 53.5299,78.4972 53.5,77.5 Z M 29.5,80.5 C 33.8082,79.7353 36.6416,81.4019 38,85.5C 38.8822,90.1193 38.2156,94.4526 36,98.5C 30.6503,93.5002 28.4836,87.5002 29.5,80.5 Z M 50.5,97.5 C 49.0304,99.3901 48.0304,101.557 47.5,104C 47.9054,104.945 48.572,105.612 49.5,106C 55.1918,107.067 60.5251,106.234 65.5,103.5C 61.6762,98.7765 56.6762,96.7765 50.5,97.5 Z"/></g>
<g><path style="opacity:0.613" fill="#665641" d="M 134.5,62.5 C 134.917,61.8761 135.584,61.5427 136.5,61.5C 137.713,61.7472 138.38,62.4138 138.5,63.5C 137.292,62.7659 135.959,62.4326 134.5,62.5 Z"/></g>
<g><path style="opacity:0.795" fill="#d3b187" d="M 13.5,62.5 C 19.4232,64.0433 20.7565,67.3766 17.5,72.5C 15.8333,71.1667 14.1667,71.1667 12.5,72.5C 11.7952,70.3279 10.7952,68.3279 9.5,66.5C 11.7695,65.9954 13.1028,64.6621 13.5,62.5 Z"/></g>
<g><path style="opacity:0.727" fill="#d3b28a" d="M 11.5,76.5 C 16.6111,77.6604 17.6111,80.327 14.5,84.5C 13.1667,83.1667 11.8333,83.1667 10.5,84.5C 9.54437,83.1349 8.87771,81.6349 8.5,80C 9.54417,78.8261 10.5442,77.6594 11.5,76.5 Z"/></g>
<g><path style="opacity:0.641" fill="#000000" d="M 263.5,86.5 C 268.12,85.8854 272.12,87.0521 275.5,90C 275.37,91.0588 274.87,91.8921 274,92.5C 270.152,88.9783 266.319,88.8116 262.5,92C 267.123,93.5624 271.623,95.3957 276,97.5C 277.123,100.956 276.29,103.79 273.5,106C 268.238,107.163 263.404,106.329 259,103.5C 258.568,102.4 259.068,101.733 260.5,101.5C 263.996,103.261 267.663,103.761 271.5,103C 274.167,101.333 274.167,99.6667 271.5,98C 267.292,97.8266 263.459,96.66 260,94.5C 258.78,90.7069 259.947,88.0402 263.5,86.5 Z"/></g>
<g><path style="opacity:0.652" fill="#000000" d="M 123.5,87.5 C 124.5,87.5 125.5,87.5 126.5,87.5C 127.356,91.5701 128.523,95.5701 130,99.5C 131.505,95.6498 133.005,91.8165 134.5,88C 135.635,87.2506 136.635,87.4173 137.5,88.5C 138.64,91.9227 139.974,95.256 141.5,98.5C 143.026,95.256 144.36,91.9227 145.5,88.5C 146.325,87.6143 147.325,87.281 148.5,87.5C 147.13,94.2866 144.796,100.62 141.5,106.5C 139.209,102.147 137.375,97.4802 136,92.5C 134.599,96.8708 133.099,101.204 131.5,105.5C 130.726,106.711 129.893,106.711 129,105.5C 126.861,99.5829 125.027,93.5829 123.5,87.5 Z"/></g>
<g><path style="opacity:0.7" fill="#000000" d="M 157.5,87.5 C 158.5,87.5 159.5,87.5 160.5,87.5C 160.5,89.8333 160.5,92.1667 160.5,94.5C 163.833,94.5 167.167,94.5 170.5,94.5C 170.5,92.1667 170.5,89.8333 170.5,87.5C 171.5,87.5 172.5,87.5 173.5,87.5C 173.5,93.8333 173.5,100.167 173.5,106.5C 172.5,106.5 171.5,106.5 170.5,106.5C 170.5,103.5 170.5,100.5 170.5,97.5C 167.167,97.5 163.833,97.5 160.5,97.5C 160.5,100.5 160.5,103.5 160.5,106.5C 159.5,106.5 158.5,106.5 157.5,106.5C 157.5,100.167 157.5,93.8333 157.5,87.5 Z"/></g>
<g><path style="opacity:0.727" fill="#000000" d="M 185.5,87.5 C 190.544,87.1725 195.544,87.5059 200.5,88.5C 196.555,89.4909 192.555,89.8242 188.5,89.5C 188.5,91.1667 188.5,92.8333 188.5,94.5C 190.833,94.5 193.167,94.5 195.5,94.5C 195.5,95.5 195.5,96.5 195.5,97.5C 193.167,97.5 190.833,97.5 188.5,97.5C 188.5,99.5 188.5,101.5 188.5,103.5C 192.833,103.5 197.167,103.5 201.5,103.5C 201.5,104.5 201.5,105.5 201.5,106.5C 196.167,106.5 190.833,106.5 185.5,106.5C 185.5,100.167 185.5,93.8333 185.5,87.5 Z"/></g>
<g><path style="opacity:0.702" fill="#000000" d="M 210.5,87.5 C 215.875,87.1718 221.208,87.5052 226.5,88.5C 222.541,89.3265 218.541,89.8265 214.5,90C 213.62,91.3561 213.286,92.8561 213.5,94.5C 216.167,94.5 218.833,94.5 221.5,94.5C 221.5,95.5 221.5,96.5 221.5,97.5C 218.833,97.5 216.167,97.5 213.5,97.5C 213.5,99.5 213.5,101.5 213.5,103.5C 217.833,103.5 222.167,103.5 226.5,103.5C 226.5,104.5 226.5,105.5 226.5,106.5C 221.167,106.5 215.833,106.5 210.5,106.5C 210.5,100.167 210.5,93.8333 210.5,87.5 Z"/></g>
<g><path style="opacity:0.686" fill="#000000" d="M 236.5,87.5 C 237.5,87.5 238.5,87.5 239.5,87.5C 239.5,92.8333 239.5,98.1667 239.5,103.5C 243.5,103.5 247.5,103.5 251.5,103.5C 251.5,104.5 251.5,105.5 251.5,106.5C 246.5,106.5 241.5,106.5 236.5,106.5C 236.5,100.167 236.5,93.8333 236.5,87.5 Z"/></g>
</svg>
